<svg width="71" height="67" viewBox="0 0 71 67" fill="none" xmlns="http://www.w3.org/2000/svg">
<path d="M16 22H23.5L16 27H8L16 22Z" fill="#099B5E"/>
<path d="M16 27L22 23V30.5L16 35V27Z" fill="#099B5E"/>
<path d="M6.5 35H24V39H0L6.5 35Z" fill="#099B5E"/>
<rect y="3" width="32" height="8" fill="#72F1B8"/>
<rect width="16" height="8" transform="matrix(0 -1 -1 0 8 27)" fill="#72F1B8"/>
<rect width="16" height="8" transform="matrix(1 0 0 -1 0 35)" fill="#72F1B8"/>
<rect x="32" y="47" width="32" height="8" transform="rotate(-180 32 47)" fill="#72F1B8"/>
<rect width="16" height="8" transform="matrix(0 1 1 0 24 23)" fill="#72F1B8"/>
<rect width="16" height="8" transform="matrix(-1 0 0 1 32 15)" fill="#72F1B8"/>
<rect x="32" y="23" width="32" height="8" fill="#36F9F6"/>
<rect x="32" y="67" width="28" height="12" transform="rotate(-90 32 67)" fill="#36F9F6"/>
<rect x="52" y="67" width="28" height="12" transform="rotate(-90 52 67)" fill="#36F9F6"/>
<path d="M32 15L40 12V20L32 23V15Z" fill="#099B5E"/>
<path d="M32 3L40 0.5V8L32 11V3Z" fill="#099B5E"/>
<path d="M40 20H71L64 23H32L40 20Z" fill="#0C6368"/>
<path d="M50 59V36L44 39V67L50 59Z" fill="#0C6368"/>
<path d="M38 36H50L44 39H32L38 36Z" fill="#0C6368"/>
<path d="M59.5 36H71L64 39H52L59.5 36Z" fill="#0C6368"/>
<path d="M32 31H38V36L32 39V31Z" fill="#0C6368"/>
<path d="M8 11H16V22.5L8 27V11Z" fill="#099B5E"/>
<path d="M24 12H40L32 15H16L24 12Z" fill="#099B5E"/>
<path d="M10.5 0.5H40L32 3H0L10.5 0.5Z" fill="#099B5E"/>
<path d="M64 23L71 20V27L64 31V23Z" fill="#0C6368"/>
<path d="M64 39L71 36V61.5L64 67V39Z" fill="#0C6368"/>
</svg>
