<svg width="66" height="38" viewBox="0 0 66 38" fill="none" xmlns="http://www.w3.org/2000/svg">
<rect x="34" width="32" height="8" rx="4" fill="#36F9F6"/>
<rect x="38" y="10" width="24" height="8" rx="4" fill="#36F9F6"/>
<rect x="42" y="20" width="16" height="8" rx="4" fill="#36F9F6"/>
<rect width="32" height="8" rx="4" transform="matrix(-1 0 0 1 32 0)" fill="#DC9E65"/>
<rect width="24" height="8" rx="4" transform="matrix(-1 0 0 1 28 10)" fill="#DC9E65"/>
<rect width="16" height="8" rx="4" transform="matrix(-1 0 0 1 24 20)" fill="#DC9E65"/>
<circle cx="62" cy="4" r="4" fill="#058482"/>
<circle cx="20" cy="24" r="4" fill="#AD6F35"/>
<circle cx="16" cy="34" r="4" fill="#AD6F35"/>
<circle cx="24" cy="14" r="4" fill="#AD6F35"/>
<circle cx="28" cy="4" r="4" fill="#AD6F35"/>
<circle cx="58" cy="14" r="4" fill="#058482"/>
<circle cx="54" cy="24" r="4" fill="#058482"/>
<circle cx="50" cy="34" r="4" fill="#058482"/>
</svg>
