<svg width="105" height="65" viewBox="0 0 105 65" fill="none" xmlns="http://www.w3.org/2000/svg">
<rect x="1.10059" y="0.443848" width="9.93682" height="45.4255" transform="rotate(0.305765 1.10059 0.443848)" fill="#36F9F6"/>
<path d="M55.7529 0.73584L55.6999 10.6725L1.04816 10.3809L1.10119 0.444182L55.7529 0.73584Z" fill="#36F9F6"/>
<path d="M40.25 46.0791L40.303 36.1424L0.911191 35.9322L0.858163 45.8689L40.25 46.0791Z" fill="#36F9F6"/>
<rect width="9.93682" height="45.4255" transform="matrix(-0.999986 -0.00533658 -0.00533658 0.999986 55.6582 18.48)" fill="#72F1B8"/>
<path d="M15.9121 18.2676L15.8591 28.2043L55.6058 28.4164L55.6588 18.4797L15.9121 18.2676Z" fill="#72F1B8"/>
<path d="M0.763672 63.6133L0.8167 53.6766L55.4684 53.9683L55.4154 63.9049L0.763672 63.6133Z" fill="#72F1B8"/>
<path d="M55.7529 0.73584L79.8849 0.864624L104.017 0.993407L103.964 10.9301L55.6999 10.6725L55.7529 0.73584Z" fill="#72F1B8"/>
<path d="M74.5791 64.0068L74.7211 37.3907L74.8632 10.7746L84.7999 10.8277L84.5158 64.0599L74.5791 64.0068Z" fill="#36F9F6"/>
</svg>
